HIERARCHY
ROOT Hips
{
	OFFSET 0.000000 71.427986 0.000000
	CHANNELS 6 Xposition Yposition Zposition Xrotation Yrotation Zrotation
	JOINT Pelvis
	{
		OFFSET 0.000000 0.000000 0.000000
		CHANNELS 3 Xrotation Yrotation Zrotation
		JOINT LeftUpLeg
		{
			OFFSET 6.797100 -2.508499 -1.318700
			CHANNELS 3 Xrotation Yrotation Zrotation
			JOINT LeftLeg
			{
				OFFSET 0.069008 -29.241863 0.690200
				CHANNELS 3 Xrotation Yrotation Zrotation
				JOINT LeftFoot
				{
					OFFSET -0.069008 -29.568123 -0.266800
					CHANNELS 3 Xrotation Yrotation Zrotation
					JOINT LeftToeBase
					{
						OFFSET 3.145500 -8.631000 16.059900
						CHANNELS 3 Xrotation Yrotation Zrotation
						End Site
						{
							OFFSET 0.000000 18.501587 0.000000
						}
					}
				}
			}
			JOINT Left_ShortSleeve
			{
				OFFSET 0.265923 -10.480953 1.153800
				CHANNELS 3 Xrotation Yrotation Zrotation
				End Site
				{
					OFFSET 1.725763 19.823879 0.000000
				}
			}
		}
		JOINT RightUpLeg
		{
			OFFSET -6.797100 -2.508499 -1.318700
			CHANNELS 3 Xrotation Yrotation Zrotation
			JOINT RightLeg
			{
				OFFSET -0.082453 -29.241932 0.688000
				CHANNELS 3 Xrotation Yrotation Zrotation
				JOINT RightFoot
				{
					OFFSET 0.082453 -29.568058 -0.264600
					CHANNELS 3 Xrotation Yrotation Zrotation
					JOINT RightToeBase
					{
						OFFSET -3.115300 -8.682800 16.113400
						CHANNELS 3 Xrotation Yrotation Zrotation
						End Site
						{
							OFFSET 0.000000 18.567114 0.000000
						}
					}
				}
			}
			JOINT Right_ShortSleeve
			{
				OFFSET -0.265923 -10.480953 1.153800
				CHANNELS 3 Xrotation Yrotation Zrotation
				End Site
				{
					OFFSET -1.725766 19.823910 0.000000
				}
			}
		}
	}
	JOINT Spine
	{
		OFFSET 0.000000 13.368103 0.470500
		CHANNELS 3 Xrotation Yrotation Zrotation
		JOINT Spine1
		{
			OFFSET 0.147000 13.837402 0.538800
			CHANNELS 3 Xrotation Yrotation Zrotation
			JOINT Spine2
			{
				OFFSET 0.168000 16.242897 -1.435500
				CHANNELS 3 Xrotation Yrotation Zrotation
				JOINT Neck
				{
					OFFSET 0.217200 18.631500 -1.679100
					CHANNELS 3 Xrotation Yrotation Zrotation
					JOINT Head
					{
						OFFSET 0.000000 6.599396 1.385900
						CHANNELS 3 Xrotation Yrotation Zrotation
						JOINT Hat
						{
							OFFSET -0.532200 27.220596 -10.096100
							CHANNELS 3 Xrotation Yrotation Zrotation
							End Site
							{
								OFFSET 0.000000 22.029861 0.000000
							}
						}
						JOINT HairD
						{
							OFFSET -10.777400 17.437393 -1.325900
							CHANNELS 3 Xrotation Yrotation Zrotation
							JOINT HairD1
							{
								OFFSET -3.290299 -11.051193 1.062200
								CHANNELS 3 Xrotation Yrotation Zrotation
								End Site
								{
									OFFSET 0.000000 11.579437 0.000000
								}
							}
						}
						JOINT HairB
						{
							OFFSET -10.777400 17.437393 1.467900
							CHANNELS 3 Xrotation Yrotation Zrotation
							JOINT HairB1
							{
								OFFSET -1.561200 -12.956299 3.590200
								CHANNELS 3 Xrotation Yrotation Zrotation
								End Site
								{
									OFFSET 0.000000 13.534866 0.000000
								}
							}
						}
						JOINT HairA
						{
							OFFSET 9.713100 17.437393 1.467900
							CHANNELS 3 Xrotation Yrotation Zrotation
							JOINT HairA1
							{
								OFFSET 1.561200 -12.956299 3.590200
								CHANNELS 3 Xrotation Yrotation Zrotation
								End Site
								{
									OFFSET 0.000000 13.534866 0.000000
								}
							}
						}
						JOINT HairC
						{
							OFFSET 9.713100 17.437393 -1.325900
							CHANNELS 3 Xrotation Yrotation Zrotation
							JOINT HairC1
							{
								OFFSET 3.290300 -11.051193 1.062200
								CHANNELS 3 Xrotation Yrotation Zrotation
								End Site
								{
									OFFSET 0.000000 11.579437 0.000000
								}
							}
						}
					}
				}
				JOINT LeftShoulder
				{
					OFFSET 5.101800 15.108002 -2.763700
					CHANNELS 3 Xrotation Yrotation Zrotation
					JOINT LeftArm
					{
						OFFSET 9.825497 2.506317 -1.597400
						CHANNELS 3 Xrotation Yrotation Zrotation
						JOINT LeftForeArm
						{
							OFFSET 21.966244 0.000000 0.000000
							CHANNELS 3 Xrotation Yrotation Zrotation
							JOINT LeftHand
							{
								OFFSET 33.879036 0.000000 0.000000
								CHANNELS 3 Xrotation Yrotation Zrotation
								JOINT LeftHandThumb1
								{
									OFFSET 6.715286 -2.359680 3.363841
									CHANNELS 3 Xrotation Yrotation Zrotation
									JOINT LeftHandThumb2
									{
										OFFSET 2.507072 -1.447464 1.447461
										CHANNELS 3 Xrotation Yrotation Zrotation
										JOINT LeftHandThumb3
										{
											OFFSET 2.898338 -1.673355 1.673357
											CHANNELS 3 Xrotation Yrotation Zrotation
											End Site
											{
												OFFSET -0.295959 3.727692 -0.131651
											}
										}
									}
								}
								JOINT LeftHandIndex1
								{
									OFFSET 14.190811 -0.254547 3.840278
									CHANNELS 3 Xrotation Yrotation Zrotation
									JOINT LeftHandIndex2
									{
										OFFSET 3.551727 0.000000 -0.000000
										CHANNELS 3 Xrotation Yrotation Zrotation
										JOINT LeftHandIndex3
										{
											OFFSET 2.894196 0.000000 0.000000
											CHANNELS 3 Xrotation Yrotation Zrotation
											End Site
											{
												OFFSET -1.000603 2.690872 0.366626
											}
										}
									}
								}
								JOINT LeftHandMiddle1
								{
									OFFSET 13.776489 0.000000 0.000000
									CHANNELS 3 Xrotation Yrotation Zrotation
									JOINT LeftHandMiddle2
									{
										OFFSET 3.438232 0.000000 0.000000
										CHANNELS 3 Xrotation Yrotation Zrotation
										JOINT LeftHandMiddle3
										{
											OFFSET 3.691551 0.000000 0.000000
											CHANNELS 3 Xrotation Yrotation Zrotation
											End Site
											{
												OFFSET -1.082298 3.499527 0.457670
											}
										}
									}
								}
								JOINT LeftHandRing1
								{
									OFFSET 13.966164 -0.268127 -3.067488
									CHANNELS 3 Xrotation Yrotation Zrotation
									JOINT LeftHandRing2
									{
										OFFSET 3.162567 0.000000 0.000000
										CHANNELS 3 Xrotation Yrotation Zrotation
										JOINT LeftHandRing3
										{
											OFFSET 3.324348 0.000000 0.000000
											CHANNELS 3 Xrotation Yrotation Zrotation
											End Site
											{
												OFFSET -0.861900 3.184998 0.405154
											}
										}
									}
								}
								JOINT LeftHandPinky1
								{
									OFFSET 13.131393 -0.168503 -5.746925
									CHANNELS 3 Xrotation Yrotation Zrotation
									JOINT LeftHandPinky2
									{
										OFFSET 2.849182 0.000000 0.000000
										CHANNELS 3 Xrotation Yrotation Zrotation
										JOINT LeftHandPinky3
										{
											OFFSET 2.805038 0.000000 0.000000
											CHANNELS 3 Xrotation Yrotation Zrotation
											End Site
											{
												OFFSET -0.882500 2.642609 0.325652
											}
										}
									}
								}
							}
							JOINT Left_Sleeve
							{
								OFFSET 6.592125 -0.646545 0.805568
								CHANNELS 3 Xrotation Yrotation Zrotation
								End Site
								{
									OFFSET -0.000179 20.275787 -0.000000
								}
							}
						}
					}
				}
				JOINT RightShoulder
				{
					OFFSET -5.731700 15.108002 -2.763700
					CHANNELS 3 Xrotation Yrotation Zrotation
					JOINT RightArm
					{
						OFFSET -9.825497 2.506317 -1.597400
						CHANNELS 3 Xrotation Yrotation Zrotation
						JOINT RightForeArm
						{
							OFFSET -21.966242 0.000000 0.000000
							CHANNELS 3 Xrotation Yrotation Zrotation
							JOINT RightHand
							{
								OFFSET -33.879032 0.000000 0.000000
								CHANNELS 3 Xrotation Yrotation Zrotation
								JOINT RightHandThumb1
								{
									OFFSET -6.715286 -2.359680 3.363841
									CHANNELS 3 Xrotation Yrotation Zrotation
									JOINT RightHandThumb2
									{
										OFFSET -2.507072 -1.447464 1.447461
										CHANNELS 3 Xrotation Yrotation Zrotation
										JOINT RightHandThumb3
										{
											OFFSET -2.898338 -1.673355 1.673357
											CHANNELS 3 Xrotation Yrotation Zrotation
											End Site
											{
												OFFSET 0.295959 3.727692 -0.131651
											}
										}
									}
								}
								JOINT RightHandIndex1
								{
									OFFSET -14.190811 -0.254547 3.840278
									CHANNELS 3 Xrotation Yrotation Zrotation
									JOINT RightHandIndex2
									{
										OFFSET -3.551727 0.000000 -0.000000
										CHANNELS 3 Xrotation Yrotation Zrotation
										JOINT RightHandIndex3
										{
											OFFSET -2.894196 0.000000 0.000000
											CHANNELS 3 Xrotation Yrotation Zrotation
											End Site
											{
												OFFSET 1.000603 2.690872 0.366626
											}
										}
									}
								}
								JOINT RightHandMiddle1
								{
									OFFSET -13.776489 0.000000 0.000000
									CHANNELS 3 Xrotation Yrotation Zrotation
									JOINT RightHandMiddle2
									{
										OFFSET -3.438232 0.000000 0.000000
										CHANNELS 3 Xrotation Yrotation Zrotation
										JOINT RightHandMiddle3
										{
											OFFSET -3.691551 0.000000 0.000000
											CHANNELS 3 Xrotation Yrotation Zrotation
											End Site
											{
												OFFSET 1.082298 3.499527 0.457670
											}
										}
									}
								}
								JOINT RightHandRing1
								{
									OFFSET -13.966164 -0.268127 -3.067488
									CHANNELS 3 Xrotation Yrotation Zrotation
									JOINT RightHandRing2
									{
										OFFSET -3.162567 0.000000 0.000000
										CHANNELS 3 Xrotation Yrotation Zrotation
										JOINT RightHandRing3
										{
											OFFSET -3.324348 0.000000 0.000000
											CHANNELS 3 Xrotation Yrotation Zrotation
											End Site
											{
												OFFSET 0.861900 3.184998 0.405154
											}
										}
									}
								}
								JOINT RightHandPinky1
								{
									OFFSET -13.131393 -0.168503 -5.746925
									CHANNELS 3 Xrotation Yrotation Zrotation
									JOINT RightHandPinky2
									{
										OFFSET -2.849182 0.000000 0.000000
										CHANNELS 3 Xrotation Yrotation Zrotation
										JOINT RightHandPinky3
										{
											OFFSET -2.805038 0.000000 0.000000
											CHANNELS 3 Xrotation Yrotation Zrotation
											End Site
											{
												OFFSET 0.882500 2.642609 0.325652
											}
										}
									}
								}
							}
							JOINT Right_Sleeve
							{
								OFFSET -6.592125 -0.646545 0.805568
								CHANNELS 3 Xrotation Yrotation Zrotation
								End Site
								{
									OFFSET 0.000179 20.275787 -0.000000
								}
							}
						}
					}
				}
				JOINT Bind_Right_JacketString
				{
					OFFSET -3.534800 11.969597 7.200700
					CHANNELS 3 Xrotation Yrotation Zrotation
					JOINT Bind_Right_JacketString1
					{
						OFFSET -0.319900 -6.102600 2.794100
						CHANNELS 3 Xrotation Yrotation Zrotation
						End Site
						{
							OFFSET 0.000000 6.719452 0.000000
						}
					}
				}
				JOINT Bind_Left_JacketString
				{
					OFFSET 2.904800 11.969597 7.200700
					CHANNELS 3 Xrotation Yrotation Zrotation
					JOINT Bind_Left_JacketString1
					{
						OFFSET 0.364800 -5.904503 3.186800
						CHANNELS 3 Xrotation Yrotation Zrotation
						End Site
						{
							OFFSET 0.000000 6.719513 0.000000
						}
					}
				}
				JOINT HairE
				{
					OFFSET 5.915200 17.612701 -11.592200
					CHANNELS 3 Xrotation Yrotation Zrotation
					JOINT HairE1
					{
						OFFSET 0.289200 -7.171898 -1.284500
						CHANNELS 3 Xrotation Yrotation Zrotation
						End Site
						{
							OFFSET 0.000000 7.291756 0.000000
						}
					}
				}
				JOINT HairF
				{
					OFFSET -0.864800 17.612701 -11.592200
					CHANNELS 3 Xrotation Yrotation Zrotation
					JOINT HairF1
					{
						OFFSET 0.000000 -14.087097 -2.127501
						CHANNELS 3 Xrotation Yrotation Zrotation
						End Site
						{
							OFFSET 0.000000 14.246841 0.000000
						}
					}
				}
				JOINT HairG
				{
					OFFSET -8.087700 17.612701 -11.592200
					CHANNELS 3 Xrotation Yrotation Zrotation
					JOINT HairG1
					{
						OFFSET -0.293600 -6.081398 -0.910100
						CHANNELS 3 Xrotation Yrotation Zrotation
						End Site
						{
							OFFSET 0.000000 6.156120 0.000000
						}
					}
				}
			}
		}
	}
	JOINT Pouch
	{
		OFFSET 0.000000 4.394501 10.847300
		CHANNELS 3 Xrotation Yrotation Zrotation
		End Site
		{
			OFFSET 0.000000 21.880577 0.000000
		}
	}
	JOINT Bag
	{
		OFFSET -13.229000 4.813004 -0.593300
		CHANNELS 3 Xrotation Yrotation Zrotation
		End Site
		{
			OFFSET 0.000000 21.880577 0.000000
		}
	}
	JOINT OccupyGuyFacialAnim_Joint
	{
		OFFSET 1.000000 -70.206398 -1.655000
		CHANNELS 3 Xrotation Yrotation Zrotation
		End Site
		{
			OFFSET 0.000000 21.880577 0.000000
		}
	}
}
MOTION
Frames: 4
Frame Time: 0.033333
-0.264402 72.268387 0.409701 -3.422942 3.900879 -3.329010 -0.000000 0.000000 -0.000000 -25.696760 -10.407243 0.033762 58.913100 0.846104 -0.101048 4.009608 1.870362 9.040537 0.000003 -0.000000 0.000000 0.000003 -0.000000 0.000000 -13.174079 -10.454711 7.417386 38.402500 -0.906250 0.139604 0.152494 0.423107 -7.099133 -0.000002 -0.000000 -0.000000 -0.000002 -0.000000 -0.000000 7.483737 -0.365799 -0.643226 -2.114713 -0.634066 1.955411 -2.107417 -0.526124 1.991271 -6.842738 -2.682117 0.508893 2.526784 0.702883 0.466853 0.000001 0.000000 -0.000000 0.000001 0.000000 -0.000000 0.000001 0.000000 -0.000000 0.000001 0.000000 -0.000000 0.000001 0.000000 -0.000000 0.000001 0.000000 -0.000000 0.000001 0.000000 -0.000000 0.000001 0.000000 -0.000000 0.000001 0.000000 -0.000000 1.091369 1.577359 -3.543032 -1.207961 1.492936 -78.012761 20.698685 -13.799230 -0.079250 -0.026782 -3.262853 -0.409713 10.557715 -2.873378 25.085804 -5.464153 26.111897 -7.055819 0.000001 0.000001 0.000000 2.372211 3.636015 -10.145432 -2.155739 2.456251 -20.339716 0.000001 0.000000 0.000002 -1.984300 5.666081 -18.668012 0.262862 5.090457 -32.022440 -0.000001 0.000002 0.000001 -4.974564 10.107080 -16.316149 4.008928 4.056171 -38.803684 0.000001 0.000001 -0.000002 -6.472575 11.328376 -26.083973 10.736397 2.575053 -37.642545 -0.000000 0.000001 0.000001 0.000001 0.000000 -0.000001 0.487466 5.285026 4.297999 -7.282518 4.832119 74.584839 13.988534 13.383141 -4.466961 0.106875 3.530079 -2.699082 15.566061 -0.729116 -16.762765 -6.579401 -24.370071 7.035610 -0.000001 0.000000 0.000003 2.252297 -2.297218 4.747736 -2.162984 -2.444705 14.947869 -0.000001 0.000001 0.000001 -1.987005 -5.675769 8.743284 0.263316 -5.087437 22.099612 -0.000003 0.000000 0.000003 -4.977273 -10.114509 7.762292 4.005860 -4.045815 30.251038 0.000003 -0.000001 -0.000000 -6.472727 -11.324490 16.980588 10.704483 -2.553590 28.536098 -0.000004 -0.000001 0.000000 0.000002 -0.000000 0.000001 -0.000000 -0.000000 0.000000 -0.000000 -0.000000 0.000000 -0.000000 -0.000000 0.000000 -0.000000 -0.000000 0.000000 -0.000000 -0.000000 0.000000 -0.000000 -0.000000 0.000000 -0.000000 -0.000000 0.000000 -0.000000 -0.000000 0.000000 -0.000000 -0.000000 0.000000 -0.000000 -0.000000 0.000000 -0.000000 0.000000 -0.000000 -0.000000 0.000000 -0.000000 -0.000000 0.000000 -0.000000 
0.054529 72.623703 1.977288 -2.704314 2.920470 -2.293405 0.000000 0.000000 0.000000 -27.471729 -7.686424 -0.942346 50.620724 0.399233 -0.096118 5.481662 1.887732 8.517277 -0.000001 0.000000 -0.000000 -0.000001 -0.000001 0.000000 -11.680663 -11.435756 5.228181 37.228564 1.737200 0.330880 -0.820171 0.278434 -7.244922 -0.000001 -0.000000 -0.000000 -0.000001 0.000000 -0.000000 6.864526 -0.111526 -1.025828 -2.080431 -0.313499 1.675652 -2.058832 -0.215385 1.707924 -6.824234 -1.991731 0.148009 2.570388 1.192967 0.558138 -0.000000 -0.000000 -0.000000 -0.000000 -0.000000 -0.000000 -0.000000 -0.000000 -0.000000 -0.000000 -0.000000 -0.000000 -0.000000 -0.000000 -0.000000 -0.000000 -0.000000 -0.000000 -0.000000 -0.000000 -0.000000 -0.000000 -0.000000 -0.000000 -0.000000 -0.000000 -0.000000 1.161758 2.620607 -4.138579 -0.675545 1.681685 -77.754027 23.741087 -14.201285 0.898239 -0.068916 -3.014305 -2.607533 10.564695 -2.788192 25.093984 -5.218034 26.476040 -7.060057 0.000000 0.000001 0.000001 2.368894 3.618906 -10.542935 -2.155421 2.457277 -20.648557 -0.000001 0.000000 -0.000000 -1.982019 5.665986 -19.011651 0.263194 5.092146 -32.464767 -0.000000 0.000000 0.000002 -4.975659 10.103257 -16.675516 4.008803 4.054421 -39.242439 -0.000001 0.000000 -0.000005 -6.467933 11.326200 -26.437521 10.731162 2.573533 -38.114348 -0.000001 -0.000001 0.000003 0.000004 0.000001 -0.000000 0.521029 5.806646 4.065537 -8.045853 5.987354 74.740363 12.972011 13.640121 -3.836576 0.904497 8.387689 -8.131724 15.508209 -0.687462 -16.866097 -6.705434 -24.171363 7.034820 -0.000001 0.000000 0.000001 2.231049 -2.099803 4.811206 -2.162878 -2.441589 14.788000 -0.000001 -0.000001 0.000000 -2.018308 -5.473587 8.858203 0.267209 -5.088506 22.231820 -0.000001 -0.000001 0.000001 -4.976997 -10.116603 7.863830 4.002997 -4.040804 30.972579 0.000001 -0.000001 -0.000001 -6.469954 -11.326048 17.089074 10.673229 -2.578304 29.837579 -0.000003 -0.000001 0.000000 0.000000 0.000001 -0.000000 -0.000000 -0.000000 0.000000 -0.000000 -0.000000 0.000000 -0.000000 -0.000000 0.000000 -0.000000 -0.000000 0.000000 -0.000000 -0.000000 0.000000 -0.000000 -0.000000 0.000000 -0.000000 -0.000000 0.000000 -0.000000 -0.000000 0.000000 -0.000000 -0.000000 0.000000 -0.000000 -0.000000 0.000000 0.000000 0.000000 0.000000 0.000000 0.000000 0.000000 0.000000 0.000000 0.000000 
0.364388 72.747711 3.557336 -2.030958 2.008888 -1.918684 0.000000 -0.000000 0.000000 -28.311539 -4.185822 -0.953773 40.740743 -2.071277 -0.267333 10.085544 3.256695 8.395721 0.000002 -0.000001 -0.000000 0.000000 -0.000000 -0.000000 -10.341712 -13.921176 3.401952 36.443878 5.777362 0.721344 -1.778922 0.407970 -8.357381 0.000001 0.000000 -0.000000 0.000000 -0.000000 0.000000 6.505680 0.168180 -0.460463 -2.164171 -0.087649 1.327397 -2.103374 -0.002019 1.355804 -6.706182 -1.103627 -0.543467 2.558715 1.719132 0.758874 -0.000000 0.000000 -0.000000 -0.000000 0.000000 -0.000000 -0.000000 0.000000 0.000000 -0.000000 0.000000 -0.000000 -0.000000 0.000000 0.000000 -0.000000 0.000000 -0.000000 -0.000000 0.000000 0.000000 -0.000000 0.000000 -0.000000 -0.000000 0.000000 -0.000000 1.326058 3.845516 -5.238572 -0.005116 2.080354 -77.146488 25.494444 -14.592168 1.554049 -0.146906 -1.828995 -3.393109 10.582448 -2.571646 25.114942 -4.591304 27.403924 -7.081738 0.000001 0.000001 0.000002 2.360841 3.576190 -11.553920 -2.154913 2.455398 -21.434320 0.000004 0.000001 -0.000000 -1.975801 5.661600 -19.885858 0.263951 5.096244 -33.589600 0.000001 -0.000001 -0.000003 -4.971214 10.095525 -17.590859 4.008840 4.051174 -40.358116 -0.000001 0.000001 0.000004 -6.462126 11.317021 -27.336338 10.721007 2.570725 -39.313790 0.000001 0.000001 0.000003 0.000003 0.000000 -0.000000 0.568234 6.440958 3.658639 -8.430298 8.119884 74.878312 10.227168 15.268106 -3.522364 0.993495 8.010053 -8.560325 15.361478 -0.581223 -17.128709 -7.026023 -23.666599 7.035595 -0.000000 0.000000 -0.000000 2.177037 -1.597695 4.972943 -2.162281 -2.437671 14.381247 -0.000001 -0.000003 0.000002 -2.101418 -4.960103 9.150782 0.267289 -5.086194 22.567512 -0.000003 0.000003 -0.000000 -4.974892 -10.117133 8.122854 3.996893 -4.031306 32.807253 -0.000000 -0.000002 -0.000001 -6.462450 -11.325787 17.365502 10.622736 -2.642056 33.144268 0.000002 0.000001 0.000001 0.000002 -0.000000 0.000000 -0.000000 0.000000 -0.000000 -0.000000 -0.000000 -0.000000 -0.000000 0.000000 -0.000000 -0.000000 0.000000 -0.000000 -0.000000 0.000000 -0.000000 -0.000000 -0.000000 -0.000000 -0.000000 0.000000 -0.000000 -0.000000 0.000000 -0.000000 -0.000000 0.000000 -0.000000 -0.000000 -0.000000 -0.000000 0.000000 -0.000000 0.000000 0.000000 -0.000000 0.000000 0.000000 -0.000000 0.000000 
0.721929 72.565582 5.181129 -1.048637 0.668430 -1.808750 0.000000 0.000000 -0.000000 -28.306572 0.552005 -0.339961 28.686784 -2.433973 -0.208226 17.452624 1.843908 3.915434 -0.000000 -0.000000 0.000000 -0.000003 0.000000 -0.000000 -9.958942 -16.510661 1.677372 36.808429 9.570546 1.038714 -3.261807 0.815651 -9.292453 0.000001 -0.000000 0.000000 -0.000000 0.000000 0.000000 6.137161 0.642906 0.637671 -2.415187 0.285826 0.861850 -2.279707 0.356748 0.875466 -6.516889 -0.113615 -1.146702 2.435895 2.406442 0.840325 -0.000000 -0.000000 -0.000000 -0.000000 -0.000000 -0.000000 -0.000000 -0.000000 -0.000000 -0.000000 -0.000000 -0.000000 -0.000000 -0.000000 -0.000000 -0.000000 -0.000000 -0.000000 -0.000000 -0.000000 -0.000000 -0.000000 -0.000000 -0.000000 -0.000000 -0.000000 -0.000000 1.561004 4.901432 -6.501986 0.928781 2.852961 -76.443703 25.950568 -15.000410 2.001410 -0.127260 -2.203027 -3.832348 10.606090 -2.282217 25.143169 -3.750590 28.648405 -7.135294 0.000000 -0.000000 0.000001 2.350794 3.520938 -12.905879 -2.153819 2.453477 -22.484891 0.000003 0.000001 0.000002 -1.970973 5.657759 -21.054543 0.264776 5.100340 -35.093775 -0.000002 0.000001 0.000001 -4.967542 10.089048 -18.814844 4.009745 4.049409 -41.849983 -0.000004 0.000000 -0.000004 -6.457121 11.308854 -28.538115 10.714607 2.569189 -40.917300 0.000002 -0.000001 -0.000003 0.000002 -0.000001 0.000001 0.610001 6.612301 3.312221 -8.250057 11.492343 74.614762 8.393932 17.168724 -3.295260 -2.287534 7.723668 -10.259279 15.163447 -0.439220 -17.478188 -7.454886 -22.993186 7.042836 -0.000003 0.000000 -0.000002 2.104888 -0.926342 5.190324 -2.161166 -2.436925 13.837198 -0.000006 -0.000001 0.000002 -2.220581 -4.275037 9.543268 0.267448 -5.083531 23.016356 -0.000001 0.000002 0.000001 -4.972630 -10.112996 8.469739 3.991073 -4.025810 35.260459 0.000001 -0.000000 -0.000002 -6.455900 -11.321045 17.735273 10.623050 -2.744303 37.561765 -0.000001 -0.000002 -0.000002 0.000003 0.000000 -0.000001 0.000000 0.000000 -0.000000 0.000000 0.000000 0.000000 0.000000 0.000000 -0.000000 0.000000 0.000000 -0.000000 0.000000 0.000000 -0.000000 0.000000 0.000000 0.000000 0.000000 0.000000 -0.000000 0.000000 0.000000 -0.000000 0.000000 0.000000 -0.000000 0.000000 0.000000 0.000000 0.000000 0.000000 -0.000000 0.000000 0.000000 -0.000000 0.000000 0.000000 -0.000000 
